<?xml version="1.0" standalone="no"?>
<!DOCTYPE svg PUBLIC "-//W3C//DTD SVG 20010904//EN"
 "http://www.w3.org/TR/2001/REC-SVG-20010904/DTD/svg10.dtd">
<svg version="1.0" xmlns="http://www.w3.org/2000/svg"
 width="123.000000pt" height="123.000000pt" viewBox="0 0 123.000000 123.000000"
 preserveAspectRatio="xMidYMid meet">
<metadata>
Created by potrace 1.14, written by Peter Selinger 2001-2017
</metadata>
<g transform="translate(0.000000,123.000000) scale(0.100000,-0.100000)"
fill="#000000" stroke="none">
<path d="M651 1221 c-10 -6 -16 -33 -19 -75 -4 -63 -3 -66 22 -77 37 -17 52 1
59 70 8 78 -17 111 -62 82z"/>
<path d="M197 1128 c-29 -16 -19 -51 27 -97 33 -33 49 -41 64 -37 37 12 37 43
0 85 -41 47 -68 62 -91 49z"/>
<path d="M1010 1048 c-44 -47 -62 -86 -50 -108 22 -40 64 -19 111 57 36 59
-15 100 -61 51z"/>
<path d="M517 980 c-96 -24 -183 -97 -225 -188 -23 -49 -27 -70 -27 -152 0
-109 12 -143 94 -265 27 -41 52 -88 56 -105 4 -17 14 -34 22 -37 17 -7 317 17
330 26 25 17 147 187 171 238 23 49 27 71 27 143 0 103 -29 174 -97 241 -86
84 -238 127 -351 99z m210 -80 c111 -48 164 -121 171 -235 6 -91 -11 -144 -72
-228 -92 -128 -77 -118 -214 -131 -68 -6 -126 -9 -131 -6 -5 3 -16 21 -26 40
-10 19 -33 56 -51 82 -56 75 -77 134 -78 213 -3 180 127 303 304 288 30 -3 74
-13 97 -23z"/>
<path d="M587 814 c-4 -4 -7 -16 -7 -26 0 -13 -7 -18 -25 -18 -14 0 -25 5 -25
10 0 17 -26 11 -46 -11 -15 -16 -16 -24 -6 -39 14 -24 6 -50 -17 -50 -44 0
-47 -64 -5 -80 24 -9 35 -50 14 -50 -17 0 -11 -26 11 -46 16 -15 24 -16 39 -6
25 15 48 6 52 -21 2 -18 10 -22 38 -22 29 0 36 4 38 23 4 24 22 28 54 11 17
-9 24 -7 42 10 17 18 19 24 8 41 -15 25 -6 48 21 52 18 2 22 10 22 38 0 29 -4
36 -22 38 -25 4 -29 22 -12 54 9 17 7 24 -10 42 -18 17 -24 19 -41 8 -25 -15
-48 -6 -52 21 -2 16 -11 23 -33 25 -17 2 -34 0 -38 -4z m90 -102 c73 -57 31
-172 -62 -172 -61 0 -95 34 -95 95 0 37 5 51 26 70 33 30 97 34 131 7z"/>
<path d="M39 703 c-46 -33 -9 -73 66 -73 70 0 110 37 72 68 -20 17 -115 20
-138 5z"/>
<path d="M1070 687 c-31 -16 -36 -39 -14 -62 14 -14 28 -16 73 -11 78 9 101
34 65 70 -19 19 -89 21 -124 3z"/>
<path d="M565 195 c-66 -7 -120 -13 -121 -14 -6 -9 12 -64 22 -68 13 -5 235
13 282 23 18 3 22 11 22 39 0 35 0 35 -42 34 -24 -1 -97 -7 -163 -14z"/>
<path d="M675 70 c-33 -4 -86 -8 -117 -9 -62 -1 -69 -8 -39 -35 44 -40 146
-28 196 24 16 16 27 29 24 29 -2 -1 -31 -5 -64 -9z"/>
</g>
</svg>
